<svg xmlns="http://www.w3.org/2000/svg" aria-hidden="true">
  <symbol id="shield" viewBox="0 0 24 24">
    <path fill="none" stroke="currentColor" stroke-width="2.5" stroke-linejoin="round" d="M12 3l8 4v6c0 5-3.5 9-8 10-4.5-1-8-5-8-10V7l8-4z"/>
  </symbol>
  <symbol id="rocket" viewBox="0 0 24 24">
    <path fill="none" stroke="currentColor" stroke-width="2.5" stroke-linecap="round" stroke-linejoin="round" d="M5 13l4 4M13 5l4 4M9 20l2-6 6-2-8-8-6 2 2 6zM10 14l-2 6 6-2-4-4z"/>
  </symbol>
  <symbol id="percent" viewBox="0 0 24 24">
    <path fill="none" stroke="currentColor" stroke-width="2.5" stroke-linecap="round" d="M19 5L5 19M7.5 7.5a2 2 0 1 0 0-4 2 2 0 0 0 0 4zm9 9a2 2 0 1 0 0-4 2 2 0 0 0 0 4z"/>
  </symbol>
  <symbol id="star" viewBox="0 0 24 24">
    <path fill="none" stroke="currentColor" stroke-width="2.5" stroke-linejoin="round" d="M12 2l2.4 7.4H22l-6 4.6 2.3 7L12 17.8 5.7 21l2.3-7-6-4.6h7.6L12 2z"/>
  </symbol>
  <symbol id="clock" viewBox="0 0 24 24">
    <circle cx="12" cy="12" r="8" fill="none" stroke="currentColor" stroke-width="2.5"/>
    <path fill="none" stroke="currentColor" stroke-width="2.5" stroke-linecap="round" d="M12 8v5l3 2"/>
  </symbol>
  <symbol id="globe" viewBox="0 0 24 24">
    <circle cx="12" cy="12" r="9" fill="none" stroke="currentColor" stroke-width="2.5"/>
    <path fill="none" stroke="currentColor" stroke-width="2.5" d="M3 12h18M12 3a14 14 0 0 0 0 18M12 3a14 14 0 0 1 0 18"/>
  </symbol>
  <symbol id="fire" viewBox="0 0 24 24">
    <path fill="none" stroke="currentColor" stroke-width="2.5" stroke-linecap="round" stroke-linejoin="round" d="M12 22c4-3 6-6 6-10a8 8 0 0 0-6-8c-1 4-4 6-6 10-2 4 0 8 6 8z"/>
  </symbol>
  <symbol id="sunset" viewBox="0 0 24 24">
    <path fill="none" stroke="currentColor" stroke-width="2.5" stroke-linecap="round" d="M3 18h18M6 14l2-2m4 0l2 2m4-2l2 2M12 4v4"/>
    <path fill="none" stroke="currentColor" stroke-width="2.5" d="M5 22h14"/>
  </symbol>
  <symbol id="car" viewBox="0 0 24 24">
    <path fill="none" stroke="currentColor" stroke-width="2.5" stroke-linejoin="round" d="M5 11l2-4h10l2 4v5H5v-5zm2 5v2m10-2v2"/>
    <circle cx="7.5" cy="16" r="1.5" fill="currentColor"/><circle cx="16.5" cy="16" r="1.5" fill="currentColor"/>
  </symbol>
  <symbol id="captain" viewBox="0 0 24 24">
    <circle cx="12" cy="8" r="3" fill="none" stroke="currentColor" stroke-width="2.5"/>
    <path fill="none" stroke="currentColor" stroke-width="2.5" stroke-linecap="round" d="M6 20v-1a4 4 0 0 1 4-4h4a4 4 0 0 1 4 4v1"/>
  </symbol>
  <symbol id="wine" viewBox="0 0 24 24">
    <path fill="none" stroke="currentColor" stroke-width="2.5" d="M8 22h8M12 11v11M9 3h6l-1 8a3 3 0 0 1-6 0L8 3z"/>
  </symbol>
  <symbol id="sparkles" viewBox="0 0 24 24">
    <path fill="none" stroke="currentColor" stroke-width="2.5" stroke-linecap="round" d="M9 11l1-3 3-1-3-1-1-3-1 3-3 1 3 1 1 3zm8 8l.5-1.5L19 17l-1.5-.5L17 15l-.5 1.5-1.5.5 1.5.5.5 1.5zm0-10l.5-1.5L19 7l-1.5-.5L17 5l-.5 1.5-1.5.5 1.5.5.5 1.5z"/>
  </symbol>
  <symbol id="landmark" viewBox="0 0 24 24">
    <path fill="none" stroke="currentColor" stroke-width="2.5" stroke-linejoin="round" d="M4 20h16M6 20V10l6-3 6 3v10M10 20v-6h4v6"/>
  </symbol>
  <symbol id="grapes" viewBox="0 0 24 24">
    <circle cx="9" cy="14" r="2.5" fill="none" stroke="currentColor" stroke-width="2.25"/>
    <circle cx="15" cy="14" r="2.5" fill="none" stroke="currentColor" stroke-width="2.25"/>
    <circle cx="12" cy="10" r="2.5" fill="none" stroke="currentColor" stroke-width="2.25"/>
    <path fill="none" stroke="currentColor" stroke-width="2.5" stroke-linecap="round" d="M12 6V4"/>
  </symbol>
  <symbol id="sushi" viewBox="0 0 24 24">
    <ellipse cx="12" cy="12" rx="8" ry="3.5" fill="none" stroke="currentColor" stroke-width="2.5"/>
    <path fill="none" stroke="currentColor" stroke-width="2.5" d="M4 12h16"/>
  </symbol>
  <symbol id="mappin" viewBox="0 0 24 24">
    <path fill="none" stroke="currentColor" stroke-width="2.5" stroke-linecap="round" stroke-linejoin="round" d="M12 21s7-4.5 7-11a7 7 0 1 0-14 0c0 6.5 7 11 7 11z"/>
    <circle cx="12" cy="10" r="2" fill="none" stroke="currentColor" stroke-width="2.5"/>
  </symbol>
  <symbol id="moon" viewBox="0 0 24 24">
    <path fill="none" stroke="currentColor" stroke-width="2.5" stroke-linecap="round" d="M21 14.5A8.5 8.5 0 0 1 9.5 3 6.5 6.5 0 1 0 21 14.5z"/>
  </symbol>
  <symbol id="utensils" viewBox="0 0 24 24">
    <path fill="none" stroke="currentColor" stroke-width="2.5" stroke-linecap="round" d="M6 4v11c0 2-1.5 3-3 3M9 4v16M6 4h3"/>
    <path fill="none" stroke="currentColor" stroke-width="2.5" stroke-linecap="round" d="M16 4l-1 16M16 4c1 0 2 1 2 3v6"/>
  </symbol>
  <symbol id="coffee" viewBox="0 0 24 24">
    <path fill="none" stroke="currentColor" stroke-width="2.5" d="M6 8h10v5a4 4 0 0 1-4 4H8a4 4 0 0 1-4-4V8zM16 10h2a2 2 0 0 1 0 4h-2M6 18h8"/>
  </symbol>
  <symbol id="gift" viewBox="0 0 24 24">
    <rect x="3" y="8" width="18" height="13" rx="1" fill="none" stroke="currentColor" stroke-width="2.5"/>
    <path fill="none" stroke="currentColor" stroke-width="2.5" d="M12 8V21M3 12h18M8 8c0-2 1.5-4 4-4s4 2 4 4"/>
  </symbol>
  <symbol id="drum" viewBox="0 0 24 24">
    <ellipse cx="12" cy="14" rx="7" ry="3" fill="none" stroke="currentColor" stroke-width="2.5"/>
    <path fill="none" stroke="currentColor" stroke-width="2.5" stroke-linecap="round" d="M5 14V11c0-2 2-4 7-4s7 2 7 4v3M9 8V6m6 2V6"/>
  </symbol>
  <symbol id="paw" viewBox="0 0 24 24">
    <ellipse cx="8" cy="10" rx="2" ry="2.5" fill="none" stroke="currentColor" stroke-width="2.25"/>
    <ellipse cx="16" cy="10" rx="2" ry="2.5" fill="none" stroke="currentColor" stroke-width="2.25"/>
    <ellipse cx="12" cy="7" rx="2" ry="2.5" fill="none" stroke="currentColor" stroke-width="2.25"/>
    <path fill="none" stroke="currentColor" stroke-width="2.5" stroke-linecap="round" d="M9 16c1 2 2.5 3 3 3s2-1 3-3"/>
  </symbol>
  <symbol id="boat" viewBox="0 0 24 24">
    <path fill="none" stroke="currentColor" stroke-width="2.5" stroke-linejoin="round" d="M3 17l2.5-8h13L21 17M4 17h16v0a3 3 0 0 1-3 3H7a3 3 0 0 1-3-3z"/>
  </symbol>
  <symbol id="office" viewBox="0 0 24 24">
    <path fill="none" stroke="currentColor" stroke-width="2.5" stroke-linejoin="round" d="M6 22V4a2 2 0 0 1 2-2h8a2 2 0 0 1 2 2v18M6 12h12M10 12v10M14 12v10"/>
  </symbol>
  <symbol id="ticket" viewBox="0 0 24 24">
    <path fill="none" stroke="currentColor" stroke-width="2.5" d="M3 9a2 2 0 0 1 2-2h14a2 2 0 0 1 2 2v1a2 2 0 0 0 0 4v1a2 2 0 0 1-2 2H5a2 2 0 0 1-2-2v-1a2 2 0 0 0 0-4V9z"/>
    <path fill="none" stroke="currentColor" stroke-width="2.5" d="M13 7v10"/>
  </symbol>
  <symbol id="beer" viewBox="0 0 24 24">
    <path fill="none" stroke="currentColor" stroke-width="2.5" d="M9 3h6v8a3 3 0 0 1-3 3 3 3 0 0 1-3-3V3zM7 14h10v7a2 2 0 0 1-2 2H9a2 2 0 0 1-2-2v-7z"/>
  </symbol>
  <symbol id="cocktail" viewBox="0 0 24 24">
    <path fill="none" stroke="currentColor" stroke-width="2.5" stroke-linecap="round" d="M8 22h8M12 11v11M5 3l7 8 7-8"/>
  </symbol>
  <symbol id="dance" viewBox="0 0 24 24">
    <circle cx="8" cy="7" r="2" fill="none" stroke="currentColor" stroke-width="2.5"/>
    <path fill="none" stroke="currentColor" stroke-width="2.5" stroke-linecap="round" d="M8 9v5l-2 6M8 14l4-2 3 2M15 5l2 2-2 6"/>
  </symbol>
  <symbol id="walk" viewBox="0 0 24 24">
    <circle cx="12" cy="5" r="2" fill="none" stroke="currentColor" stroke-width="2.5"/>
    <path fill="none" stroke="currentColor" stroke-width="2.5" stroke-linecap="round" d="M9 22v-6l-2-5M15 22v-6l2-5M10 11h4"/>
  </symbol>
  <symbol id="leaf" viewBox="0 0 24 24">
    <path fill="none" stroke="currentColor" stroke-width="2.5" stroke-linecap="round" d="M12 3C9 9 6 13 6 17a6 6 0 0 0 12 0c0-4-3-8-6-14z"/>
  </symbol>
  <symbol id="cup" viewBox="0 0 24 24">
    <path fill="none" stroke="currentColor" stroke-width="2.5" d="M6 8h8v5a4 4 0 0 1-8 0V8zM14 10h3a2 2 0 0 1 0 4h-3M6 18h8"/>
  </symbol>
  <symbol id="horse" viewBox="0 0 24 24">
    <path fill="none" stroke="currentColor" stroke-width="2.5" stroke-linecap="round" stroke-linejoin="round" d="M5 16l3-9 4-1 2 3h3l2 7M8 16h12M10 7l-2-3"/>
  </symbol>
</svg>
