<svg xmlns="http://www.w3.org/2000/svg" aria-hidden="true">
  <!-- Stroke icons; color via currentColor on parent .nav-cat-icon -->
  <symbol id="nav-all" viewBox="0 0 24 24">
    <path fill="none" stroke="currentColor" stroke-width="2" stroke-linecap="round" stroke-linejoin="round" d="M5 5h6v6H5zm8 0h6v6h-6zM5 13h6v6H5zm8 0h6v6h-6z"/>
  </symbol>
  <symbol id="nav-fullday" viewBox="0 0 24 24">
    <circle cx="12" cy="12" r="8" fill="none" stroke="currentColor" stroke-width="2"/>
    <path fill="none" stroke="currentColor" stroke-width="2" stroke-linecap="round" d="M12 12V6m0 6l4 3"/>
    <path fill="none" stroke="currentColor" stroke-width="1.5" stroke-linecap="round" d="M12 4v2M12 18v2M4 12h2m12 0h2"/>
  </symbol>
  <symbol id="nav-day" viewBox="0 0 24 24">
    <circle cx="12" cy="12" r="4" fill="none" stroke="currentColor" stroke-width="2"/>
    <path fill="none" stroke="currentColor" stroke-width="2" stroke-linecap="round" d="M12 2v2m0 16v2M4.93 4.93l1.41 1.41m11.32 11.32l1.41 1.41M2 12h2m16 0h2M4.93 19.07l1.41-1.41M16.66 7.34l1.41-1.41"/>
  </symbol>
  <symbol id="nav-night" viewBox="0 0 24 24">
    <path fill="none" stroke="currentColor" stroke-width="2" stroke-linecap="round" stroke-linejoin="round" d="M21 14.5A8.5 8.5 0 0 1 9.5 3 6.5 6.5 0 1 0 21 14.5z"/>
  </symbol>
  <symbol id="nav-tours" viewBox="0 0 24 24">
    <path fill="none" stroke="currentColor" stroke-width="2" stroke-linecap="round" stroke-linejoin="round" d="M4 20h16M6 20V10.5L12 7l6 3.5V20M10 20v-4h4v4"/>
  </symbol>
  <symbol id="nav-gastro" viewBox="0 0 24 24">
    <path fill="none" stroke="currentColor" stroke-width="2" stroke-linecap="round" stroke-linejoin="round" d="M6 4v3c0 2 1 3 2 3s2-1 2-3V4M7 4h2M8 10v11M16 5l-2 16M16 5h2"/>
  </symbol>
  <symbol id="nav-nature" viewBox="0 0 24 24">
    <path fill="none" stroke="currentColor" stroke-width="2" stroke-linecap="round" stroke-linejoin="round" d="M12 3C9 9 6 13 6 17a6 6 0 0 0 12 0c0-4-3-8-6-14z"/>
    <path fill="none" stroke="currentColor" stroke-width="2" stroke-linecap="round" d="M12 17v4"/>
  </symbol>
  <symbol id="nav-culture" viewBox="0 0 24 24">
    <ellipse cx="12" cy="14" rx="7" ry="3" fill="none" stroke="currentColor" stroke-width="2"/>
    <path fill="none" stroke="currentColor" stroke-width="2" stroke-linecap="round" d="M5 14V11c0-2 2-4 7-4s7 2 7 4v3M9 8V6m6 2V6"/>
  </symbol>
  <symbol id="nav-romantic" viewBox="0 0 24 24">
    <path fill="none" stroke="currentColor" stroke-width="2" stroke-linecap="round" stroke-linejoin="round" d="M12 21s-6.5-4-8.5-8C2 10.5 3.5 7 7 7c2 0 3.5 1.5 5 3 1.5-1.5 3-3 5-3 3.5 0 5 3.5 3.5 6C18.5 17 12 21 12 21z"/>
  </symbol>
  <symbol id="nav-corporate" viewBox="0 0 24 24">
    <path fill="none" stroke="currentColor" stroke-width="2" stroke-linecap="round" stroke-linejoin="round" d="M9 7V5a2 2 0 0 1 2-2h2a2 2 0 0 1 2 2v2M4 9h16v10a2 2 0 0 1-2 2H6a2 2 0 0 1-2-2V9zm4 0V7h8v2"/>
  </symbol>
</svg>
